<?xml version="1.0" encoding="utf-8"?>
<!-- Generator: Adobe Illustrator 22.0.1, SVG Export Plug-In . SVG Version: 6.00 Build 0)  -->
<svg version="1.1" id="Layer_1" xmlns="http://www.w3.org/2000/svg" xmlns:xlink="http://www.w3.org/1999/xlink" x="0px" y="0px"
	 viewBox="0 0 372 258.2" style="enable-background:new 0 0 372 258.2;" xml:space="preserve">
<style type="text/css">
	.st0{clip-path:url(#SVGID_2_);}
	.st1{fill:#FFFFFF;}
	.st2{fill:none;stroke:#FFFFFF;stroke-width:2.98;stroke-linecap:round;stroke-miterlimit:10;}
</style>
<title>logo</title>
<g>
	<defs>
		<rect id="SVGID_1_" x="80.9" y="27.4" width="209.5" height="204"/>
	</defs>
	<clipPath id="SVGID_2_">
		<use xlink:href="#SVGID_1_"  style="overflow:visible;"/>
	</clipPath>
	<g class="st0">
		<path class="st1" d="M251.7,212.1c-1.8,1.7-2.9,4-2.8,6.5c0,2.5,1.1,4.8,3,6.4c2,1.6,4.5,2.5,7.1,2.4c2.7,0.1,5.3-0.9,7.2-2.8
			c1.8-1.7,2.8-4.1,2.8-6.5c0.1-2.5-1-4.8-2.9-6.4c-2-1.6-4.5-2.5-7.1-2.4C256.2,209.2,253.6,210.2,251.7,212.1 M253.2,218.3
			c-0.2-1.6,0.2-3.3,1.2-4.6c0.9-1.3,2.4-2,3.9-1.9c1.7,0,3.3,0.7,4.4,1.9c1.2,1.3,1.9,2.9,2,4.6c0.3,1.6-0.2,3.3-1.1,4.6
			c-0.9,1.3-2.4,2-3.9,2c-1.7,0-3.3-0.7-4.4-2C254,221.7,253.3,220.1,253.2,218.3"/>
		<path class="st1" d="M246.5,221.6h-1.1l-0.9,1.2c-0.4,0.6-1,1.1-1.6,1.5l-2,0.3h-2.6l-1.1-0.2c-0.1-0.1-0.2-0.6-0.2-1.3v-10.2
			c0-0.6,0.1-1.2,0.3-1.7c0.5-0.4,1.1-0.6,1.8-0.6h0.4l0.1-0.9l-6.2,0.2l-3.2-0.2l0.1,0.9h0.5c0.6,0,1.3,0.2,1.8,0.6
			c0.3,0.5,0.4,1.1,0.4,1.7v10.9c0.1,0.6-0.1,1.1-0.4,1.6c-0.5,0.4-1.1,0.6-1.8,0.6h-0.5l-0.1,0.9l6.2-0.2l7.8,0.2
			C244.7,225,245.5,223.2,246.5,221.6"/>
		<path class="st1" d="M271,210.9v0.4c1.2,0.5,2.1,1.4,2.6,2.6h0.4c0.3-0.7,0.7-1.2,1.2-1.7h3.6v11.6c0.1,0.6-0.1,1.1-0.4,1.6
			c-0.5,0.4-1.1,0.6-1.8,0.6h-0.5v0.9l6.1-0.2l3.2,0.2l-0.1-0.9H285c-0.6,0-1.3-0.2-1.8-0.6c-0.3-0.5-0.4-1.1-0.4-1.6v-11.6h3.9
			c0.4,0.4,0.7,0.9,0.9,1.4h0.4c0.4-1.1,1.3-1.9,2.3-2.3v-0.4c-1.1-0.4-1.9-1.3-2.3-2.3h-0.4l-0.9,1.3H275l-1-1.5h-0.4
			C273.1,209.5,272.2,210.5,271,210.9"/>
		<path class="st1" d="M224.9,213.9l-0.6-3.9l-5-0.7c-1.4-0.1-2.9,0.4-4,1.3c-1,0.8-1.5,2.1-1.5,3.4c0,2.1,1.2,3.8,3.7,5
			c1.2,0.6,2.3,1.2,3.3,2c0.6,0.5,1,1.2,1.1,2c0,1.7-1.1,2.5-3.2,2.5s-3.5-1.3-4.2-3.8h-0.9l0.7,4.6l1.9,0.6l3,0.5
			c1.7,0,3.4-0.5,4.7-1.6c1.1-0.8,1.8-2,1.9-3.4c0-1.3-0.4-2.6-1.2-3.6c-1.1-1.1-2.3-2-3.7-2.7c-1.2-0.7-1.9-1.1-2.2-1.3
			c-0.7-0.5-1.1-1.1-1.1-1.6c0-1.4,0.8-2.1,2.5-2.1c1.8,0,3.4,1.1,4,2.8L224.9,213.9z"/>
		<path class="st1" d="M219.2,231.4c1,0,2-0.2,2.9-0.6c0.8-0.4,1.3-0.7,1.5-1.1c-1.8,0.7-3.7,0.8-5.6,0.4c-4.1-0.8-8-2.7-11.2-5.4
			l-5.9-5.8c1.9-0.8,3.2-2.7,3.2-4.7c0-1.2-0.6-2.3-1.7-3c-1.3-0.9-2.9-1.4-4.6-1.3l-6.3,0.1l-3.1-0.2v0.9h0.5
			c0.6,0,1.3,0.2,1.8,0.6c0.3,0.5,0.4,1.1,0.4,1.7v11c0.1,0.6-0.1,1.1-0.4,1.6c-0.5,0.4-1.1,0.6-1.8,0.6h-0.5v0.9l6.2-0.2l3.1,0.2
			l-0.1-0.9h-0.4c-0.6,0-1.3-0.2-1.8-0.6c-0.3-0.5-0.4-1-0.4-1.6v-4.3l1.3,0.1l0.9,0.4l7.1,6.1C209.4,229.7,214.3,231.4,219.2,231.4
			 M195.2,212.5c0-0.4,0.2-0.7,0.5-0.8l1.2-0.1c0.9,0,1.7,0.3,2.3,1c0.5,0.6,0.8,1.4,0.8,2.2c0,1-0.3,1.9-1,2.6
			c-0.7,0.6-1.5,0.9-2.4,0.9h-1.4L195.2,212.5z"/>
		<path class="st1" d="M167.5,209.6v0.9h0.4c0.7,0,1.3,0.2,1.8,0.6c0.3,0.5,0.4,1.1,0.3,1.7v11c0,0.6-0.1,1.1-0.3,1.6
			c-0.5,0.4-1.1,0.7-1.8,0.6h-0.4v0.9l11.7-0.1c0.5,0.5,0.8,1,1.1,1.6h0.4c0.5-1.2,1.4-2.1,2.6-2.6v-0.4c-1.2-0.5-2.1-1.4-2.6-2.6
			h-0.4c-0.3,0.6-0.7,1.2-1.2,1.7h-3.6l-1.1-0.2c-0.2-0.4-0.3-0.8-0.2-1.3v-4.6h3.4v-0.1h0.3c0.3,0.2,0.6,0.5,0.7,0.9h0.3
			c0.3-0.8,0.9-1.4,1.7-1.7v-0.2c-0.8-0.3-1.4-0.9-1.7-1.6h-0.3c-0.2,0.6-0.5,0.8-0.8,0.8h-0.2v-0.1h-3.4v-4.4l4.5,0.1l0.1-0.1
			c0.6,0.5,1.1,1.1,1.4,1.8h0.4c0.5-1.2,1.4-2.1,2.6-2.6V211c-1.2-0.5-2.1-1.4-2.6-2.6h-0.4l-1,1.5L167.5,209.6z"/>
		<path class="st1" d="M162.9,218c0.1-2.3-0.9-4.5-2.6-6c-1.8-1.5-4.1-2.4-6.4-2.3l-7.2,0.1l-3.1-0.2v0.9h0.5c0.6,0,1.3,0.2,1.8,0.6
			c0.3,0.5,0.4,1.1,0.4,1.7v11c0.1,0.6-0.1,1.1-0.4,1.6c-0.5,0.4-1.1,0.6-1.8,0.6h-0.5v0.9l3.1-0.2l7.2,0.1c2.4,0.1,4.8-0.9,6.5-2.6
			C162,222.6,162.9,220.3,162.9,218 M150.2,212.1l2.9-0.1c1.5,0,2.9,0.6,3.9,1.6c1.1,1.2,1.7,2.8,1.6,4.4c0,1.6-0.5,3.2-1.5,4.5
			c-0.9,1.3-2.4,2-4,2l-2.3-0.4c-0.4-0.4-0.7-0.9-0.6-1.5L150.2,212.1z"/>
		<path class="st1" d="M134.9,204.9c-1.2-0.5-2.1-1.4-2.6-2.6H132c-0.5,1.2-1.4,2.1-2.6,2.6v0.5c1.2,0.5,2.1,1.4,2.6,2.6h0.4
			c0.5-1.2,1.4-2.1,2.6-2.6V204.9z"/>
		<path class="st1" d="M136.7,210.5v-0.9l-6.1,0.2l-3.1-0.2v0.9h0.5c0.6,0,1.3,0.2,1.8,0.6c0.3,0.5,0.4,1.1,0.4,1.7v10.9
			c0.1,0.6-0.1,1.1-0.4,1.6c-0.5,0.4-1.1,0.6-1.8,0.6h-0.4v0.9l3.1-0.2l6.1,0.2v-0.9h-0.4c-0.6,0-1.3-0.2-1.8-0.6
			c-0.3-0.5-0.4-1.1-0.3-1.6v-10.9c-0.1-0.6,0.1-1.2,0.3-1.7c0.5-0.4,1.1-0.7,1.8-0.6H136.7z"/>
		<path class="st1" d="M112.4,209.6v0.9h0.5c0.6,0,1.3,0.2,1.8,0.6c0.3,0.5,0.4,1.1,0.3,1.7v7.9c0,4.2,1.9,6.2,5.6,6.2
			c2,0,4-0.9,5.2-2.6v-2.1c-0.6,1.5-2,2.4-3.5,2.4c-0.8,0-1.6-0.3-2.1-0.9c-0.7-0.9-1.1-2-1-3.1v-7.9c-0.1-0.6,0.1-1.2,0.3-1.7
			c0.5-0.4,1.1-0.6,1.8-0.6h0.4l0.1-0.9l-3.2,0.2L112.4,209.6z"/>
		<path class="st1" d="M105.9,212.9c-0.1-0.6,0.1-1.2,0.3-1.7c0.5-0.4,1.1-0.6,1.8-0.6h0.5v-0.9l-13.8,1.2l-13.8-1.2l0.1,0.9h0.4
			c0.6,0,1.3,0.2,1.8,0.6c0.3,0.5,0.4,1.1,0.3,1.7v10.9c0.1,0.6-0.1,1.1-0.3,1.6c-0.5,0.4-1.1,0.6-1.8,0.6H81l-0.1,0.9l6.8-0.2
			v-13.8l5-0.2v11.1c0.1,0.6-0.1,1.1-0.3,1.6c-0.5,0.4-1.1,0.6-1.8,0.6h-0.4l-0.1,0.9l3.1-0.2l6.2,0.2V226h-0.5
			c-0.6,0-1.3-0.2-1.8-0.6c-0.3-0.5-0.4-1.1-0.3-1.6v-11l5,0.2v13.8l6.7,0.2v-0.9h-0.5c-1,0.2-1.9-0.4-2.2-1.4
			c-0.1-0.3-0.1-0.6,0-0.9L105.9,212.9z"/>
		<polygon class="st1" points="205.1,142.9 229.3,142.9 229.2,69.3 142.2,69.2 142.2,142.9 166.9,143.1 166.7,94.1 173.9,94.1 
			173.9,143.1 198.1,143.1 198.2,94.1 205.1,94.1 		"/>
		<path class="st2" d="M252.1,39.5c4.1,4,6.4,9.6,6.3,15.4c0,4.1-1.1,8.1-3.3,11.5c-2.1,3.4-5.1,6.1-8.7,7.9
			c0.5,8.5,0.8,18.8,0.9,30.8c0.1,12.3-0.1,23.1-0.7,32.3c3.6,1.7,6.7,4.4,8.8,7.8c6.5,10.1,3.5,23.6-6.6,30s-23.6,3.5-30-6.6
			c-0.7-1-1.2-2.1-1.7-3.2l-31.5,1.1c-11.9,0.2-22.3,0-31.1-0.5c-1.8,3.6-4.5,6.7-7.9,8.9c-3.5,2.3-7.6,3.5-11.7,3.5
			c-12,0-21.7-9.7-21.7-21.7c0-8.1,4.5-15.6,11.7-19.3c-0.6-9.3-0.9-20.1-0.9-32.4c0-11.8,0.3-22.2,0.8-31.2
			c-7.5-3.6-12.2-11.1-12.3-19.4c-0.1-5.8,2.1-11.3,6.3-15.3c8.5-8.5,22.3-8.5,30.8,0.1c1.5,1.5,2.8,3.3,3.8,5.2
			c9.1-0.5,19.8-0.7,32.2-0.5l31.8,1.1c3.7-7.2,11.2-11.7,19.3-11.7C242.5,33.1,248.1,35.4,252.1,39.5z"/>
	</g>
</g>
</svg>
